G04*
G04 #@! TF.GenerationSoftware,Altium Limited,Altium Designer,23.3.1 (30)*
G04*
G04 Layer_Physical_Order=2*
G04 Layer_Color=32768*
%FSLAX25Y25*%
%MOIN*%
G70*
G04*
G04 #@! TF.SameCoordinates,E5E33378-C9C0-40F0-BAD3-03F64417F324*
G04*
G04*
G04 #@! TF.FilePolarity,Negative*
G04*
G01*
G75*
%ADD12C,0.01000*%
%ADD156C,0.04000*%
%ADD157R,0.01968X0.01968*%
%ADD158R,0.01968X0.01968*%
%ADD159R,0.02090X0.02162*%
%ADD160R,0.01968X0.01968*%
%ADD161R,0.02000X0.02000*%
%ADD162R,0.01968X0.01575*%
%ADD163R,0.01968X0.01575*%
%ADD164R,0.01907X0.01670*%
%ADD165R,0.08268X0.02756*%
%ADD166R,0.08268X0.02756*%
%ADD167C,0.05512*%
%ADD168C,0.05118*%
%ADD169O,0.08268X0.06299*%
%ADD170C,0.14173*%
%ADD171C,0.03150*%
%ADD172C,0.03543*%
D12*
X248031Y116535D02*
Y133465D01*
Y137402D02*
X270866D01*
X321654Y150000D02*
Y196850D01*
X294488Y150000D02*
X321654D01*
X294488D02*
Y154724D01*
X270866D02*
X294488D01*
X270866Y137402D02*
Y154724D01*
X346457Y106299D02*
Y196850D01*
Y106299D02*
X367323D01*
Y48031D02*
Y106299D01*
X293307Y48031D02*
X367323D01*
X285433D02*
X293307D01*
X285433D02*
Y64567D01*
X227953D02*
X285433D01*
X227953D02*
Y94882D01*
X248031D01*
Y116535D01*
D156*
X62992Y153543D02*
Y196850D01*
X-0Y153543D02*
X62992D01*
X-0D02*
X0Y0D01*
X62992Y196850D02*
X374016D01*
Y0D02*
Y196850D01*
X0Y0D02*
X374016D01*
D157*
X365158Y70669D02*
D03*
X284055Y91142D02*
D03*
D158*
X287598Y70669D02*
D03*
D159*
X365097Y94782D02*
D03*
D160*
X334449Y111614D02*
D03*
D161*
X331000Y192000D02*
D03*
D162*
X11220Y30709D02*
D03*
Y74016D02*
D03*
Y95669D02*
D03*
D163*
Y52362D02*
D03*
Y117323D02*
D03*
D164*
X11251Y139024D02*
D03*
D165*
X39173Y38386D02*
D03*
Y60039D02*
D03*
Y81693D02*
D03*
Y103346D02*
D03*
Y125000D02*
D03*
Y146653D02*
D03*
D166*
X25787Y38386D02*
D03*
Y60039D02*
D03*
Y81693D02*
D03*
Y103346D02*
D03*
Y125000D02*
D03*
Y146653D02*
D03*
D167*
X304331Y184500D02*
D03*
X314331D02*
D03*
X266000D02*
D03*
X276000D02*
D03*
D168*
X214961Y153346D02*
D03*
X187402D02*
D03*
D169*
X112205Y149606D02*
D03*
Y168504D02*
D03*
Y187402D02*
D03*
D170*
X299213Y166535D02*
D03*
X86221Y171653D02*
D03*
X59055Y16535D02*
D03*
X232283D02*
D03*
D171*
X227953Y36220D02*
D03*
X278740Y147638D02*
D03*
X274016D02*
D03*
X365000Y108000D02*
D03*
X330118Y43307D02*
D03*
X365150Y58611D02*
D03*
X202362Y53543D02*
D03*
X198031D02*
D03*
X106299Y42913D02*
D03*
X175591Y50787D02*
D03*
X245563Y53150D02*
D03*
X365150Y70697D02*
D03*
X287531Y58610D02*
D03*
Y70697D02*
D03*
X283988Y91169D02*
D03*
Y86169D02*
D03*
X365150Y82626D02*
D03*
Y94713D02*
D03*
X334516Y111586D02*
D03*
X350000Y108000D02*
D03*
X322402Y111614D02*
D03*
X329341Y65653D02*
D03*
X331649Y80153D02*
D03*
Y104169D02*
D03*
X329341Y89669D02*
D03*
X331000Y192000D02*
D03*
X326000D02*
D03*
X329445Y147423D02*
D03*
X343945Y145115D02*
D03*
X221654Y131102D02*
D03*
X225984Y135433D02*
D03*
X221654D02*
D03*
X158661Y141339D02*
D03*
X225984Y139370D02*
D03*
X221654D02*
D03*
X170866Y141339D02*
D03*
X274016Y151575D02*
D03*
X278740D02*
D03*
X215945Y118110D02*
D03*
X65748Y67716D02*
D03*
X91732Y73622D02*
D03*
X73622Y67718D02*
D03*
X106299Y53150D02*
D03*
X112598Y128347D02*
D03*
X106299Y108268D02*
D03*
Y118110D02*
D03*
Y86221D02*
D03*
Y96457D02*
D03*
Y128347D02*
D03*
X196457Y77559D02*
D03*
X194488Y81890D02*
D03*
X198425Y73622D02*
D03*
X250394Y78347D02*
D03*
X246850Y81496D02*
D03*
X207283Y69685D02*
D03*
X213189Y63779D02*
D03*
X209252Y65748D02*
D03*
X211221Y61811D02*
D03*
X218110Y98425D02*
D03*
X215158Y67716D02*
D03*
X217126Y71653D02*
D03*
X188976Y98425D02*
D03*
X177165Y73622D02*
D03*
Y77559D02*
D03*
Y81890D02*
D03*
X169291Y61811D02*
D03*
Y65748D02*
D03*
X177165Y69685D02*
D03*
X173228Y67716D02*
D03*
Y71653D02*
D03*
Y63779D02*
D03*
X174409Y25197D02*
D03*
X302362D02*
D03*
X264567D02*
D03*
X136614D02*
D03*
X91929Y36615D02*
D03*
X91732Y52067D02*
D03*
Y116929D02*
D03*
X73228Y122441D02*
D03*
X65748Y111024D02*
D03*
X131890Y121653D02*
D03*
X69685Y125984D02*
D03*
X131890Y113779D02*
D03*
X11417Y138976D02*
D03*
X14961D02*
D03*
X91929Y32284D02*
D03*
X43701Y7482D02*
D03*
X41732Y10237D02*
D03*
X11417Y30709D02*
D03*
X14961D02*
D03*
X11417Y52362D02*
D03*
X14961D02*
D03*
X11417Y74016D02*
D03*
X14961D02*
D03*
X11417Y95669D02*
D03*
X14961D02*
D03*
X11417Y117323D02*
D03*
X14961D02*
D03*
X22047Y18898D02*
D03*
X18504Y22441D02*
D03*
X73228Y57579D02*
D03*
X69685Y61122D02*
D03*
X73228Y79134D02*
D03*
X69685Y82677D02*
D03*
X73228Y100787D02*
D03*
X69685Y104331D02*
D03*
X131890Y117717D02*
D03*
X190157Y107087D02*
D03*
Y111024D02*
D03*
Y114961D02*
D03*
X193701Y107087D02*
D03*
Y111024D02*
D03*
Y114961D02*
D03*
X65748Y46063D02*
D03*
X14567Y42913D02*
D03*
X39764Y19291D02*
D03*
X29921Y22835D02*
D03*
X14567Y4922D02*
D03*
X22441Y7482D02*
D03*
X73622Y46163D02*
D03*
X14567Y64567D02*
D03*
Y86221D02*
D03*
X65748Y89370D02*
D03*
X73622Y89372D02*
D03*
X91732Y95276D02*
D03*
X14567Y107874D02*
D03*
X73622Y111025D02*
D03*
X91732Y138583D02*
D03*
X73622Y132679D02*
D03*
X65748Y132677D02*
D03*
X14567Y129527D02*
D03*
X222244Y191339D02*
D03*
X179134Y190945D02*
D03*
X183071D02*
D03*
X187008D02*
D03*
X190945D02*
D03*
X179134Y187008D02*
D03*
X183071D02*
D03*
X187008D02*
D03*
X190945D02*
D03*
Y179134D02*
D03*
X187008D02*
D03*
X183071D02*
D03*
X179134D02*
D03*
X190945Y183071D02*
D03*
X187008D02*
D03*
X183071D02*
D03*
X179134D02*
D03*
X133858D02*
D03*
X137795D02*
D03*
X141732D02*
D03*
X145669D02*
D03*
X133858Y179134D02*
D03*
X137795D02*
D03*
X141732D02*
D03*
X145669D02*
D03*
Y187008D02*
D03*
X141732D02*
D03*
X137795D02*
D03*
X133858D02*
D03*
X145669Y190945D02*
D03*
X141732D02*
D03*
X137795D02*
D03*
X133858D02*
D03*
X155512Y153150D02*
D03*
X144193Y153425D02*
D03*
D172*
X254331Y118504D02*
D03*
X242126Y122441D02*
D03*
X254331D02*
D03*
X242126Y126378D02*
D03*
X208957Y14567D02*
D03*
X162992Y25197D02*
D03*
X290945D02*
D03*
X360040Y112992D02*
D03*
X254331Y126378D02*
D03*
X242126Y118504D02*
D03*
X21654Y39764D02*
D03*
Y37008D02*
D03*
Y148031D02*
D03*
Y145276D02*
D03*
Y126378D02*
D03*
Y123622D02*
D03*
Y104724D02*
D03*
Y101969D02*
D03*
Y83071D02*
D03*
Y80315D02*
D03*
Y61417D02*
D03*
Y58661D02*
D03*
X24409D02*
D03*
Y61417D02*
D03*
X29921Y58661D02*
D03*
Y61417D02*
D03*
X27165D02*
D03*
Y58661D02*
D03*
X35039D02*
D03*
Y61417D02*
D03*
X37795D02*
D03*
X40551D02*
D03*
X43307D02*
D03*
Y58661D02*
D03*
X37795D02*
D03*
X40551D02*
D03*
X24409Y37008D02*
D03*
Y39764D02*
D03*
X29921Y37008D02*
D03*
Y39764D02*
D03*
X27165D02*
D03*
Y37008D02*
D03*
X35039D02*
D03*
Y39764D02*
D03*
X37795D02*
D03*
X40551D02*
D03*
X43307D02*
D03*
Y37008D02*
D03*
X37795D02*
D03*
X40551D02*
D03*
Y80315D02*
D03*
X37795D02*
D03*
X43307D02*
D03*
Y83071D02*
D03*
X40551D02*
D03*
X37795D02*
D03*
X35039D02*
D03*
Y80315D02*
D03*
X27165D02*
D03*
Y83071D02*
D03*
X29921D02*
D03*
Y80315D02*
D03*
X24409Y83071D02*
D03*
Y80315D02*
D03*
X40551Y101969D02*
D03*
X37795D02*
D03*
X43307D02*
D03*
Y104724D02*
D03*
X40551D02*
D03*
X37795D02*
D03*
X35039D02*
D03*
Y101969D02*
D03*
X27165D02*
D03*
Y104724D02*
D03*
X29921D02*
D03*
Y101969D02*
D03*
X24409Y104724D02*
D03*
Y101969D02*
D03*
X40551Y123622D02*
D03*
X37795D02*
D03*
X43307D02*
D03*
Y126378D02*
D03*
X40551D02*
D03*
X37795D02*
D03*
X35039D02*
D03*
Y123622D02*
D03*
X27165D02*
D03*
Y126378D02*
D03*
X29921D02*
D03*
Y123622D02*
D03*
X24409Y126378D02*
D03*
Y123622D02*
D03*
Y145276D02*
D03*
Y148031D02*
D03*
X29921Y145276D02*
D03*
Y148031D02*
D03*
X27165D02*
D03*
Y145276D02*
D03*
X35039D02*
D03*
Y148031D02*
D03*
X37795D02*
D03*
X40551D02*
D03*
X43307D02*
D03*
Y145276D02*
D03*
X37795D02*
D03*
X40551D02*
D03*
M02*
