M48
;Layer_Color=9474304
;FILE_FORMAT=2:4
INCH,LZ
;TYPE=PLATED
T1F00S00C0.0118
T2F00S00C0.0157
T3F00S00C0.0315
T4F00S00C0.0354
T6F00S00C0.1220
%
T01
X001457Y000492
X002244Y000748
X002953Y000748
X003347
Y001142
X002953
X002992Y002283
X002205Y00189
X00185Y002244
X001496Y003071
X001142
X001457Y004291
X001496Y005236
X001142
X003976Y001929
X004173Y001024
X00437Y000748
X006575Y004606
X007362Y004616
X008071Y004616
X008465
Y00501
X008071
X009173Y005207
X009193Y003661
Y003228
X01063Y004291
Y005315
X007323Y005758
X012717Y00252
X013661
X014606
X013583Y000984
Y000394
X0175
Y000984
X018681
Y000394
X017441Y00252
X017835Y003425
X017559Y005079
X017559Y005571
X019803Y005354
X020236
X021201Y003717
X022323Y003622
X022795
X024556Y004843
Y005315
X026532Y00502
X027398Y005689
X027402Y00252
X026457
X025512
X026378Y000984
Y000394
X030295
Y000984
X030236Y00252
X03063Y003425
X033012Y004331
X035827Y00315
X035827Y001181
X021614Y000984
Y000394
X021516Y006772
X021713Y007165
X021811Y009843
X022913
X024567Y009705
Y01063
X024685Y00815
X025039Y007835
X028399Y007715
Y008617
Y009117
X028753Y009763
Y00707
Y005861
X031859Y006765
X032934Y006565
X033165Y008015
X032934Y008967
X031859Y009167
X031953Y008015
Y010417
X03224Y011161
X033452Y011159
X034449Y011161
X035Y0108
X0365
X036496Y010472
X036515Y009471
Y008263
X036825Y007715
X036515Y00707
Y005861
X033165Y010417
X032944Y014742
X033144Y015817
X034394Y015723
Y014511
X031378Y015276
X030709
X029291Y013898
Y013622
X028346
Y013898
X027874Y014764
Y015157
X027402
Y014764
X025709Y017283
X025354Y017598
Y016968
X024547Y019134
X022224Y019134
X022165Y013937
Y013543
Y01311
X022598Y013543
Y013937
X021594Y011811
X0326Y0192
X0331
X034094Y019278
X034783Y019291
Y018701
X036732
Y019291
X021063Y019094
Y018701
Y018307
X020669
X020276
Y018701
X020669
Y019094
X020276
X019882
Y018701
Y018307
Y017913
X020276
X020669
X021063
X019094
X018701
X018307
X017913
Y018307
Y018701
Y019094
X018307
X018701
X019094
Y018701
Y018307
X018701
Y018701
X018307
Y018307
X016535
Y018701
Y019094
X016142
X015748
X015354
Y018701
Y018307
Y017913
X015748
X016142
X016535
X016142Y018307
Y018701
X015748
Y018307
X014567
Y018701
X014173
Y018307
X01378
Y018701
X013386
Y018307
Y017913
X01378
X014173
X014567
Y019094
X014173
X01378
X013386
X014419Y015342
X015551Y015315
X015866Y014134
X017087
X017106Y013701
X019668Y012637
X020079Y012638
X020472
X020787Y011496
X021142
Y011102
X020787
Y010709
X021142
X01937
X019016
Y011102
X01937
Y011496
X019016
X018898Y009843
X02
X019449Y008189
X019646Y007756
X019843Y007362
X020728Y006969
X020925Y006575
X021319Y006378
X021122Y006181
X017323Y006378
Y006772
Y007165
X017717Y006969
Y007362
Y007756
Y008189
X016929Y006575
Y006181
X01063Y008622
Y009646
Y010827
Y011811
Y012835
X01126
X013189Y012165
Y011772
Y011378
X009173Y011693
X008465Y011496
X008071
Y011102
X008465
X007362Y011103
X006575Y011102
X006969Y010433
X007323Y010079
X007362Y008937
X008071Y008937
Y009331
X008465
Y008937
X009173Y009528
Y007362
X008465Y007165
X008071
Y006772
X008465
X007362Y006772
X006575Y006772
X006969Y006112
X007323Y007913
X006969Y008268
X006575Y008937
X007323Y012244
X006969Y012598
X006575Y013268
X007362Y013268
X008071Y013268
X008465
Y013661
X008071
X009173Y013858
X020945Y013701
X021339
Y014134
X020945
X001496Y013898
X001142
X001457Y012953
X001496Y011732
X001142
X001457Y010787
X001496Y009567
X001142
X001457Y008622
X001496Y007402
X001142
X001457Y006457
T02
X000394Y002559
X000827
X000394Y003071
Y003583
X000827
Y004173
X000394Y004173
Y004724
X000827
X000394Y005236
Y005748
X000827
X002165Y003976
Y003701
X002441
Y003976
X002717
Y003701
X002992
Y003976
X003504
Y003701
X00378
Y003976
X004055
Y003701
X004331
Y003976
X004803Y003976
Y003701
X005079
X005354
Y003976
X005079
X00563
Y003701
X005669Y005039
X005394
Y005315
X005669
Y005591
X005394
X005118
Y005315
Y005039
X016299Y00252
X015787Y001457
X020404Y001457
X020896Y001457
X028583Y001378
X029094Y00252
X025039Y007323
X024685Y007008
X024213Y01185
Y012244
Y012638
X023504
X022953
X0226Y01195
X025433Y01185
Y012244
Y012638
X025394Y01315
X025039Y013504
X024567
X024252
X035497Y011304
X036004Y011299
X035748Y016496
X005669Y014252
X005394
Y013976
Y013701
X005669
Y013976
X005118
Y013701
Y014252
X004331Y014528
Y014803
X004055
X00378
Y014528
X004055
X003504
Y014803
X002992
Y014528
X002717
Y014803
X002441
Y014528
X002165
Y014803
X000827Y014409
X000394
Y013898
Y013386
X000827
Y012835
X000394
Y012244
X000827
X000394Y011732
Y01122
X000827
Y01063
X000394
Y010079
X000827
X000394Y009567
Y009055
X000827
Y008465
X000394
Y007913
X000827
X000394Y007402
Y00689
X000827
Y006339
X000394
X002165Y006142
Y005866
X002441
Y006142
X002717
Y005866
X002992
Y006142
X003504
Y005866
X00378
Y006142
X004055
Y005866
X004331
Y006142
X005118Y007205
Y00748
Y007756
X005394
X005669
Y00748
X005394
Y007205
X005669
Y00937
Y009646
X005394
Y00937
X005118
Y009646
Y009921
X005394
X005669
X004331Y010197
Y010472
X004055
Y010197
X00378
Y010472
X003504
Y010197
X002992
Y010472
X002717
Y010197
X002441
Y010472
X002165
Y010197
Y008307
Y008031
X002441
Y008307
X002717
Y008031
X002992
Y008307
X003504
Y008031
X00378
X004055
Y008307
X00378
X004331
Y008031
X005118Y011535
Y011811
Y012087
X005394
X005669
Y011811
X005394
Y011535
X005669
X004331Y012362
Y012638
X004055
Y012362
X00378
Y012638
X003504
Y012362
X002992
Y012638
X002717
Y012362
X002441
Y012638
X002165
Y012362
T03
X021496Y015335
Y016319
X01874
Y015335
T04
X0256Y01845
X0266
X0276
X029433
X030433
X031433
T06
X005906Y001654
X023228
X029921Y016654
X008622Y017165
M30
