G04*
G04 #@! TF.GenerationSoftware,Altium Limited,Altium Designer,23.3.1 (30)*
G04*
G04 Layer_Color=128*
%FSLAX25Y25*%
%MOIN*%
G70*
G04*
G04 #@! TF.SameCoordinates,E5E33378-C9C0-40F0-BAD3-03F64417F324*
G04*
G04*
G04 #@! TF.FilePolarity,Positive*
G04*
G01*
G75*
%ADD186C,0.00500*%
D186*
X292559Y184500D02*
X296102D01*
X294331Y182728D02*
Y186272D01*
X302559Y184500D02*
X306102D01*
X304331Y182728D02*
Y186272D01*
X312559Y184500D02*
X316102D01*
X314331Y182728D02*
Y186272D01*
X213386Y153346D02*
X216535D01*
X214961Y151772D02*
Y154921D01*
X213386Y163189D02*
X216535D01*
X214961Y161614D02*
Y164764D01*
X185827Y163189D02*
X188976D01*
X187402Y161614D02*
Y164764D01*
X185827Y153346D02*
X188976D01*
X187402Y151772D02*
Y154921D01*
X110039Y149606D02*
X114370D01*
X112205Y147441D02*
Y151772D01*
X110039Y168504D02*
X114370D01*
X112205Y166339D02*
Y170669D01*
X110039Y187402D02*
X114370D01*
X112205Y185236D02*
Y189567D01*
X254228Y184500D02*
X257772D01*
X256000Y182728D02*
Y186272D01*
X264228Y184500D02*
X267772D01*
X266000Y182728D02*
Y186272D01*
X274228Y184500D02*
X277772D01*
X276000Y182728D02*
Y186272D01*
X293110Y166535D02*
X305315D01*
X299213Y160433D02*
Y172638D01*
X80118Y171653D02*
X92323D01*
X86221Y165551D02*
Y177756D01*
X52953Y16535D02*
X65158D01*
X59055Y10433D02*
Y22638D01*
X226181Y16535D02*
X238386D01*
X232283Y10433D02*
Y22638D01*
X306496Y152756D02*
X307677D01*
X307087Y152165D02*
Y153347D01*
X313189Y152756D02*
X314370D01*
X313779Y152165D02*
Y153347D01*
X245079Y97047D02*
X246260D01*
X245669Y96457D02*
Y97638D01*
X245079Y106299D02*
X246260D01*
X245669Y105709D02*
Y106890D01*
X227362Y36220D02*
X228543D01*
X227953Y35630D02*
Y36811D01*
X228543Y98425D02*
X229724D01*
X229134Y97835D02*
Y99016D01*
X241732Y135039D02*
X243307D01*
X242520Y134252D02*
Y135827D01*
X253150Y131496D02*
X254724D01*
X253937Y130709D02*
Y132283D01*
X340354Y192776D02*
X341535D01*
X340945Y192185D02*
Y193367D01*
X211418Y37168D02*
X212599D01*
X212008Y36577D02*
Y37758D01*
X278150Y147638D02*
X279331D01*
X278740Y147047D02*
Y148228D01*
X273425Y147638D02*
X274606D01*
X274016Y147047D02*
Y148228D01*
X367659Y77154D02*
X368841D01*
X368250Y76563D02*
Y77744D01*
X364409Y108000D02*
X365591D01*
X365000Y107409D02*
Y108591D01*
X329527Y43307D02*
X330708D01*
X330118Y42716D02*
Y43897D01*
X364559Y58611D02*
X365740D01*
X365150Y58020D02*
Y59201D01*
X201772Y53543D02*
X202953D01*
X202362Y52953D02*
Y54134D01*
X197441Y53543D02*
X198622D01*
X198031Y52953D02*
Y54134D01*
X105709Y42913D02*
X106890D01*
X106299Y42323D02*
Y43504D01*
X175000Y55707D02*
X176181D01*
X175590Y55116D02*
Y56298D01*
X175000Y50787D02*
X176181D01*
X175591Y50197D02*
Y51378D01*
X364370Y104724D02*
X365551D01*
X364961Y104134D02*
Y105315D01*
X246063Y70079D02*
X247638D01*
X246850Y69291D02*
Y70866D01*
X249606Y73228D02*
X251181D01*
X250394Y72441D02*
Y74016D01*
X244972Y53150D02*
X246153D01*
X245563Y52559D02*
Y53740D01*
X364559Y70697D02*
X365740D01*
X365150Y70107D02*
Y71288D01*
X286941Y58610D02*
X288122D01*
X287531Y58019D02*
Y59201D01*
X286941Y70697D02*
X288122D01*
X287531Y70106D02*
Y71287D01*
X283397Y77153D02*
X284578D01*
X283988Y76563D02*
Y77744D01*
X283397Y91169D02*
X284578D01*
X283988Y90578D02*
Y91760D01*
X286941Y97626D02*
X288122D01*
X287531Y97035D02*
Y98216D01*
X283397Y86169D02*
X284578D01*
X283988Y85578D02*
Y86760D01*
X364559Y82626D02*
X365740D01*
X365150Y82036D02*
Y83217D01*
X364559Y94713D02*
X365740D01*
X365150Y94122D02*
Y95303D01*
X333925Y111586D02*
X335106D01*
X334516Y110996D02*
Y112177D01*
X349410Y108000D02*
X350590D01*
X350000Y107409D02*
Y108591D01*
X343898Y111614D02*
X345079D01*
X344489Y111023D02*
Y112204D01*
X321811Y111614D02*
X322992D01*
X322402Y111023D02*
Y112204D01*
X318000Y67654D02*
X319181D01*
X318590Y67063D02*
Y68244D01*
X328750Y65653D02*
X329931D01*
X329341Y65063D02*
Y66244D01*
X318941Y80153D02*
X320122D01*
X319531Y79563D02*
Y80744D01*
X331059Y80153D02*
X332240D01*
X331649Y79563D02*
Y80744D01*
X331059Y104169D02*
X332240D01*
X331649Y103578D02*
Y104760D01*
X318941Y104169D02*
X320122D01*
X319531Y103578D02*
Y104760D01*
X328750Y89669D02*
X329931D01*
X329341Y89078D02*
Y90259D01*
X318000Y91669D02*
X319181D01*
X318590Y91079D02*
Y92260D01*
X330410Y192000D02*
X331591D01*
X331000Y191409D02*
Y192591D01*
X325410Y192000D02*
X326590D01*
X326000Y191409D02*
Y192591D01*
X330854Y158173D02*
X332035D01*
X331445Y157583D02*
Y158764D01*
X328854Y147423D02*
X330035D01*
X329445Y146833D02*
Y148014D01*
X343354Y157233D02*
X344535D01*
X343945Y156642D02*
Y157823D01*
X343354Y145115D02*
X344535D01*
X343945Y144524D02*
Y145705D01*
X282874Y136221D02*
X284055D01*
X283465Y135630D02*
Y136811D01*
X253543Y118504D02*
X255118D01*
X254331Y117717D02*
Y119291D01*
X241339Y122441D02*
X242913D01*
X242126Y121653D02*
Y123228D01*
X253543Y122441D02*
X255118D01*
X254331Y121653D02*
Y123228D01*
X221063Y131102D02*
X222244D01*
X221654Y130512D02*
Y131693D01*
X244882Y135039D02*
X246457D01*
X245669Y134252D02*
Y135827D01*
X225394Y135433D02*
X226575D01*
X225984Y134843D02*
Y136024D01*
X221063Y135433D02*
X222244D01*
X221654Y134843D02*
Y136024D01*
X249606Y135039D02*
X251181D01*
X250394Y134252D02*
Y135827D01*
X158071Y141339D02*
X159252D01*
X158661Y140748D02*
Y141929D01*
X292323Y138976D02*
X293504D01*
X292913Y138386D02*
Y139567D01*
X282874Y138976D02*
X284055D01*
X283465Y138386D02*
Y139567D01*
X225394Y139370D02*
X226575D01*
X225984Y138779D02*
Y139961D01*
X221063Y139370D02*
X222244D01*
X221654Y138779D02*
Y139961D01*
X170276Y141339D02*
X171457D01*
X170866Y140748D02*
Y141929D01*
X212795Y141339D02*
X213976D01*
X213386Y140748D02*
Y141929D01*
X208858Y141339D02*
X210039D01*
X209449Y140748D02*
Y141929D01*
X208858Y137008D02*
X210039D01*
X209449Y136417D02*
Y137598D01*
X292323Y136221D02*
X293504D01*
X292913Y135630D02*
Y136811D01*
X212795Y137008D02*
X213976D01*
X213386Y136417D02*
Y137598D01*
X170472Y137007D02*
X171653D01*
X171063Y136417D02*
Y137598D01*
X241339Y126378D02*
X242913D01*
X242126Y125591D02*
Y127165D01*
X225213Y119500D02*
X226787D01*
X226000Y118713D02*
Y120287D01*
X273394Y56890D02*
X274575D01*
X273984Y56299D02*
Y57480D01*
X264732Y50197D02*
X265913D01*
X265323Y49606D02*
Y50787D01*
X273425Y151575D02*
X274606D01*
X274016Y150984D02*
Y152165D01*
X278150Y151575D02*
X279331D01*
X278740Y150984D02*
Y152165D01*
X215354Y118110D02*
X216535D01*
X215945Y117519D02*
Y118701D01*
X65158Y67716D02*
X66339D01*
X65748Y67126D02*
Y68307D01*
X91142Y73622D02*
X92323D01*
X91732Y73032D02*
Y74213D01*
X80121Y71653D02*
X81302D01*
X80712Y71063D02*
Y72244D01*
X73032Y67718D02*
X74213D01*
X73622Y67128D02*
Y68309D01*
X84058Y71653D02*
X85239D01*
X84649Y71063D02*
Y72244D01*
X105709Y53150D02*
X106890D01*
X106299Y52559D02*
Y53740D01*
X84058Y46161D02*
X85239D01*
X84649Y45571D02*
Y46752D01*
X112008Y128347D02*
X113189D01*
X112598Y127756D02*
Y128937D01*
X105709Y108268D02*
X106890D01*
X106299Y107677D02*
Y108858D01*
X105709Y118110D02*
X106890D01*
X106299Y117520D02*
Y118701D01*
X105709Y86221D02*
X106890D01*
X106299Y85630D02*
Y86811D01*
X105709Y96457D02*
X106890D01*
X106299Y95866D02*
Y97047D01*
X105709Y128347D02*
X106890D01*
X106299Y127756D02*
Y128937D01*
X222638Y36220D02*
X223819D01*
X223228Y35630D02*
Y36811D01*
X157087Y14567D02*
X158661D01*
X157874Y13780D02*
Y15354D01*
X195866Y77559D02*
X197047D01*
X196457Y76968D02*
Y78150D01*
X193898Y81890D02*
X195079D01*
X194488Y81299D02*
Y82480D01*
X197835Y73622D02*
X199016D01*
X198425Y73032D02*
Y74213D01*
X249803Y78347D02*
X250984D01*
X250394Y77756D02*
Y78937D01*
X246260Y81496D02*
X247441D01*
X246850Y80905D02*
Y82087D01*
X208169Y14567D02*
X209744D01*
X208957Y13780D02*
Y15354D01*
X244972Y48425D02*
X246153D01*
X245563Y47835D02*
Y49016D01*
X215551Y9843D02*
X216732D01*
X216142Y9252D02*
Y10433D01*
X206693Y69685D02*
X207874D01*
X207283Y69095D02*
Y70276D01*
X212598Y63779D02*
X213779D01*
X213189Y63189D02*
Y64370D01*
X208661Y65748D02*
X209842D01*
X209252Y65158D02*
Y66339D01*
X210630Y61811D02*
X211811D01*
X211221Y61221D02*
Y62402D01*
X199409Y98425D02*
X200591D01*
X200000Y97835D02*
Y99016D01*
X217520Y98425D02*
X218701D01*
X218110Y97835D02*
Y99016D01*
X214567Y67716D02*
X215748D01*
X215158Y67126D02*
Y68307D01*
X216535Y71653D02*
X217717D01*
X217126Y71063D02*
Y72244D01*
X188386Y98425D02*
X189567D01*
X188976Y97835D02*
Y99016D01*
X177756Y34252D02*
X178937D01*
X178347Y33661D02*
Y34843D01*
X176575Y73622D02*
X177756D01*
X177165Y73032D02*
Y74213D01*
X176575Y77559D02*
X177756D01*
X177165Y76968D02*
Y78150D01*
X176575Y81890D02*
X177756D01*
X177165Y81299D02*
Y82480D01*
X168701Y61811D02*
X169882D01*
X169291Y61221D02*
Y62402D01*
X168701Y65748D02*
X169882D01*
X169291Y65158D02*
Y66339D01*
X176575Y69685D02*
X177756D01*
X177165Y69095D02*
Y70276D01*
X172638Y67716D02*
X173819D01*
X173228Y67126D02*
Y68307D01*
X172638Y71653D02*
X173819D01*
X173228Y71063D02*
Y72244D01*
X172638Y63779D02*
X173819D01*
X173228Y63189D02*
Y64370D01*
X162205Y25197D02*
X163779D01*
X162992Y24409D02*
Y25984D01*
X173819Y25197D02*
X175000D01*
X174409Y24606D02*
Y25787D01*
X174409Y9843D02*
X175591D01*
X175000Y9252D02*
Y10433D01*
X186221Y9843D02*
X187402D01*
X186811Y9252D02*
Y10433D01*
X174409Y3937D02*
X175591D01*
X175000Y3347D02*
Y4528D01*
X186221Y3937D02*
X187402D01*
X186811Y3347D02*
Y4528D01*
X215551Y3937D02*
X216732D01*
X216142Y3347D02*
Y4528D01*
X203248Y14567D02*
X204823D01*
X204035Y13780D02*
Y15354D01*
X305709Y34252D02*
X306890D01*
X306299Y33661D02*
Y34843D01*
X285039Y13780D02*
X286614D01*
X285827Y12992D02*
Y14567D01*
X301772Y25197D02*
X302953D01*
X302362Y24606D02*
Y25787D01*
X273425Y25197D02*
X274606D01*
X274016Y24606D02*
Y25787D01*
X263976Y25197D02*
X265158D01*
X264567Y24606D02*
Y25787D01*
X290158Y25197D02*
X291732D01*
X290945Y24409D02*
Y25984D01*
X254528Y25197D02*
X255709D01*
X255118Y24606D02*
Y25787D01*
X263189Y3937D02*
X264370D01*
X263779Y3347D02*
Y4528D01*
X263189Y9843D02*
X264370D01*
X263779Y9252D02*
Y10433D01*
X302362Y3937D02*
X303543D01*
X302953Y3347D02*
Y4528D01*
X302362Y9843D02*
X303543D01*
X302953Y9252D02*
Y10433D01*
X126575Y25197D02*
X127756D01*
X127165Y24606D02*
Y25787D01*
X136024Y25197D02*
X137205D01*
X136614Y24606D02*
Y25787D01*
X145472Y25197D02*
X146653D01*
X146063Y24606D02*
Y25787D01*
X135236Y9843D02*
X136417D01*
X135827Y9252D02*
Y10433D01*
X135236Y3937D02*
X136417D01*
X135827Y3347D02*
Y4528D01*
X359252Y112992D02*
X360827D01*
X360040Y112205D02*
Y113780D01*
X354186Y113044D02*
X355761D01*
X354973Y112257D02*
Y113831D01*
X356693Y164961D02*
X358268D01*
X357480Y164173D02*
Y165748D01*
X253543Y126378D02*
X255118D01*
X254331Y125591D02*
Y127165D01*
X357677Y11811D02*
X358858D01*
X358268Y11220D02*
Y12402D01*
X357677Y31496D02*
X358858D01*
X358268Y30906D02*
Y32087D01*
X347244Y187008D02*
X348425D01*
X347835Y186417D02*
Y187598D01*
X347244Y192913D02*
X348425D01*
X347835Y192323D02*
Y193504D01*
X366732Y187008D02*
X367913D01*
X367323Y186417D02*
Y187598D01*
X366732Y192913D02*
X367913D01*
X367323Y192323D02*
Y193504D01*
X228740Y126378D02*
X230315D01*
X229528Y125591D02*
Y127165D01*
X234252Y126378D02*
X235827D01*
X235039Y125591D02*
Y127165D01*
X241339Y118504D02*
X242913D01*
X242126Y117717D02*
Y119291D01*
X84058Y67716D02*
X85239D01*
X84649Y67126D02*
Y68307D01*
X91339Y36615D02*
X92520D01*
X91929Y36024D02*
Y37205D01*
X91142Y52067D02*
X92323D01*
X91732Y51476D02*
Y52658D01*
X91142Y116929D02*
X92323D01*
X91732Y116339D02*
Y117520D01*
X72638Y122441D02*
X73819D01*
X73228Y121850D02*
Y123031D01*
X65158Y111024D02*
X66339D01*
X65748Y110433D02*
Y111614D01*
X131299Y121653D02*
X132480D01*
X131890Y121063D02*
Y122244D01*
X69095Y125984D02*
X70276D01*
X69685Y125394D02*
Y126575D01*
X131299Y113779D02*
X132480D01*
X131890Y113189D02*
Y114370D01*
X10827Y138976D02*
X12008D01*
X11417Y138386D02*
Y139567D01*
X14370Y138976D02*
X15551D01*
X14961Y138386D02*
Y139567D01*
X91339Y32284D02*
X92520D01*
X91929Y31693D02*
Y32874D01*
X43110Y7482D02*
X44291D01*
X43701Y6891D02*
Y8072D01*
X41142Y10237D02*
X42323D01*
X41732Y9647D02*
Y10828D01*
X10827Y30709D02*
X12008D01*
X11417Y30118D02*
Y31299D01*
X14370Y30709D02*
X15551D01*
X14961Y30118D02*
Y31299D01*
X10827Y52362D02*
X12008D01*
X11417Y51772D02*
Y52953D01*
X14370Y52362D02*
X15551D01*
X14961Y51772D02*
Y52953D01*
X10827Y74016D02*
X12008D01*
X11417Y73425D02*
Y74606D01*
X14370Y74016D02*
X15551D01*
X14961Y73425D02*
Y74606D01*
X10827Y95669D02*
X12008D01*
X11417Y95079D02*
Y96260D01*
X14370Y95669D02*
X15551D01*
X14961Y95079D02*
Y96260D01*
X10827Y117323D02*
X12008D01*
X11417Y116732D02*
Y117913D01*
X14370Y117323D02*
X15551D01*
X14961Y116732D02*
Y117913D01*
X21457Y18898D02*
X22638D01*
X22047Y18307D02*
Y19488D01*
X17913Y22441D02*
X19094D01*
X18504Y21850D02*
Y23031D01*
X72638Y57579D02*
X73819D01*
X73228Y56988D02*
Y58169D01*
X69095Y61122D02*
X70276D01*
X69685Y60532D02*
Y61713D01*
X72638Y79134D02*
X73819D01*
X73228Y78543D02*
Y79724D01*
X69095Y82677D02*
X70276D01*
X69685Y82087D02*
Y83268D01*
X72638Y100787D02*
X73819D01*
X73228Y100197D02*
Y101378D01*
X69095Y104331D02*
X70276D01*
X69685Y103740D02*
Y104921D01*
X131299Y117717D02*
X132480D01*
X131890Y117126D02*
Y118307D01*
X210827Y114961D02*
X212008D01*
X211417Y114370D02*
Y115551D01*
X210827Y111024D02*
X212008D01*
X211417Y110433D02*
Y111614D01*
X210827Y107087D02*
X212008D01*
X211417Y106496D02*
Y107677D01*
X207283Y114961D02*
X208465D01*
X207874Y114370D02*
Y115551D01*
X207283Y111024D02*
X208465D01*
X207874Y110433D02*
Y111614D01*
X207283Y107087D02*
X208465D01*
X207874Y106496D02*
Y107677D01*
X189567Y107087D02*
X190748D01*
X190157Y106496D02*
Y107677D01*
X189567Y111024D02*
X190748D01*
X190157Y110433D02*
Y111614D01*
X189567Y114961D02*
X190748D01*
X190157Y114370D02*
Y115551D01*
X193110Y107087D02*
X194291D01*
X193701Y106496D02*
Y107677D01*
X193110Y111024D02*
X194291D01*
X193701Y110433D02*
Y111614D01*
X193110Y114961D02*
X194291D01*
X193701Y114370D02*
Y115551D01*
X204134Y126378D02*
X205315D01*
X204724Y125787D02*
Y126969D01*
X200197Y126378D02*
X201378D01*
X200787Y125787D02*
Y126969D01*
X196088Y126372D02*
X197269D01*
X196678Y125781D02*
Y126962D01*
X20866Y39764D02*
X22441D01*
X21654Y38976D02*
Y40551D01*
X20866Y37008D02*
X22441D01*
X21654Y36220D02*
Y37795D01*
X20866Y148031D02*
X22441D01*
X21654Y147244D02*
Y148819D01*
X20866Y145276D02*
X22441D01*
X21654Y144488D02*
Y146063D01*
X20866Y126378D02*
X22441D01*
X21654Y125591D02*
Y127165D01*
X20866Y123622D02*
X22441D01*
X21654Y122835D02*
Y124409D01*
X20866Y104724D02*
X22441D01*
X21654Y103937D02*
Y105512D01*
X20866Y101969D02*
X22441D01*
X21654Y101181D02*
Y102756D01*
X20866Y83071D02*
X22441D01*
X21654Y82284D02*
Y83858D01*
X20866Y80315D02*
X22441D01*
X21654Y79528D02*
Y81102D01*
X20866Y61417D02*
X22441D01*
X21654Y60630D02*
Y62205D01*
X20866Y58661D02*
X22441D01*
X21654Y57874D02*
Y59449D01*
X65158Y46063D02*
X66339D01*
X65748Y45472D02*
Y46654D01*
X13976Y42913D02*
X15157D01*
X14567Y42323D02*
Y43504D01*
X23622Y58661D02*
X25197D01*
X24409Y57874D02*
Y59449D01*
X23622Y61417D02*
X25197D01*
X24409Y60630D02*
Y62205D01*
X29134Y58661D02*
X30709D01*
X29921Y57874D02*
Y59449D01*
X29134Y61417D02*
X30709D01*
X29921Y60630D02*
Y62205D01*
X26378Y61417D02*
X27953D01*
X27165Y60630D02*
Y62205D01*
X26378Y58661D02*
X27953D01*
X27165Y57874D02*
Y59449D01*
X55905Y50394D02*
X57480D01*
X56693Y49606D02*
Y51181D01*
X53150Y50394D02*
X54724D01*
X53937Y49606D02*
Y51181D01*
X53150Y53150D02*
X54724D01*
X53937Y52362D02*
Y53937D01*
X55905Y53150D02*
X57480D01*
X56693Y52362D02*
Y53937D01*
X55905Y55905D02*
X57480D01*
X56693Y55118D02*
Y56693D01*
X53150Y55905D02*
X54724D01*
X53937Y55118D02*
Y56693D01*
X50394Y53150D02*
X51968D01*
X51181Y52362D02*
Y53937D01*
X50394Y55905D02*
X51968D01*
X51181Y55118D02*
Y56693D01*
X50394Y50394D02*
X51968D01*
X51181Y49606D02*
Y51181D01*
X34252Y58661D02*
X35827D01*
X35039Y57874D02*
Y59449D01*
X34252Y61417D02*
X35827D01*
X35039Y60630D02*
Y62205D01*
X37008Y61417D02*
X38583D01*
X37795Y60630D02*
Y62205D01*
X39764Y61417D02*
X41339D01*
X40551Y60630D02*
Y62205D01*
X42520Y61417D02*
X44094D01*
X43307Y60630D02*
Y62205D01*
X42520Y58661D02*
X44094D01*
X43307Y57874D02*
Y59449D01*
X37008Y58661D02*
X38583D01*
X37795Y57874D02*
Y59449D01*
X39764Y58661D02*
X41339D01*
X40551Y57874D02*
Y59449D01*
X39173Y19291D02*
X40354D01*
X39764Y18701D02*
Y19882D01*
X29331Y22835D02*
X30512D01*
X29921Y22244D02*
Y23425D01*
X13976Y4922D02*
X15157D01*
X14567Y4331D02*
Y5512D01*
X32877Y11417D02*
X34058D01*
X33468Y10827D02*
Y12008D01*
X32877Y7480D02*
X34058D01*
X33468Y6890D02*
Y8071D01*
X21850Y7482D02*
X23031D01*
X22441Y6891D02*
Y8072D01*
X28940Y11417D02*
X30121D01*
X29531Y10827D02*
Y12008D01*
X28940Y7480D02*
X30121D01*
X29531Y6890D02*
Y8071D01*
X7480Y41732D02*
X9055D01*
X8268Y40945D02*
Y42520D01*
X52756Y37008D02*
X54331D01*
X53543Y36220D02*
Y37795D01*
X55512Y37008D02*
X57087D01*
X56299Y36220D02*
Y37795D01*
X55512Y39764D02*
X57087D01*
X56299Y38976D02*
Y40551D01*
X52756Y39764D02*
X54331D01*
X53543Y38976D02*
Y40551D01*
X47244Y37008D02*
X48819D01*
X48031Y36220D02*
Y37795D01*
X50000Y37008D02*
X51575D01*
X50787Y36220D02*
Y37795D01*
X50000Y39764D02*
X51575D01*
X50787Y38976D02*
Y40551D01*
X47244Y39764D02*
X48819D01*
X48031Y38976D02*
Y40551D01*
X3150Y41732D02*
X4724D01*
X3937Y40945D02*
Y42520D01*
X3150Y63386D02*
X4724D01*
X3937Y62599D02*
Y64173D01*
X7480Y63386D02*
X9055D01*
X8268Y62599D02*
Y64173D01*
X3150Y84646D02*
X4724D01*
X3937Y83858D02*
Y85433D01*
X7480Y84646D02*
X9055D01*
X8268Y83858D02*
Y85433D01*
X3150Y106299D02*
X4724D01*
X3937Y105512D02*
Y107087D01*
X7480Y106299D02*
X9055D01*
X8268Y105512D02*
Y107087D01*
X7480Y128347D02*
X9055D01*
X8268Y127559D02*
Y129134D01*
X3150Y128347D02*
X4724D01*
X3937Y127559D02*
Y129134D01*
X3150Y30709D02*
X4724D01*
X3937Y29921D02*
Y31496D01*
X3150Y35827D02*
X4724D01*
X3937Y35039D02*
Y36614D01*
X7480Y35827D02*
X9055D01*
X8268Y35039D02*
Y36614D01*
X7480Y25591D02*
X9055D01*
X8268Y24803D02*
Y26378D01*
X3150Y25591D02*
X4724D01*
X3937Y24803D02*
Y26378D01*
X3150Y52362D02*
X4724D01*
X3937Y51575D02*
Y53150D01*
X3150Y57480D02*
X4724D01*
X3937Y56693D02*
Y58268D01*
X7480Y57480D02*
X9055D01*
X8268Y56693D02*
Y58268D01*
X7480Y47244D02*
X9055D01*
X8268Y46457D02*
Y48031D01*
X3150Y47244D02*
X4724D01*
X3937Y46457D02*
Y48031D01*
X3150Y74016D02*
X4724D01*
X3937Y73228D02*
Y74803D01*
X3150Y79134D02*
X4724D01*
X3937Y78347D02*
Y79921D01*
X7480Y79134D02*
X9055D01*
X8268Y78347D02*
Y79921D01*
X7480Y68898D02*
X9055D01*
X8268Y68110D02*
Y69685D01*
X3150Y68898D02*
X4724D01*
X3937Y68110D02*
Y69685D01*
X3150Y95669D02*
X4724D01*
X3937Y94882D02*
Y96457D01*
X3150Y100787D02*
X4724D01*
X3937Y100000D02*
Y101575D01*
X7480Y100787D02*
X9055D01*
X8268Y100000D02*
Y101575D01*
X7480Y90551D02*
X9055D01*
X8268Y89764D02*
Y91339D01*
X3150Y90551D02*
X4724D01*
X3937Y89764D02*
Y91339D01*
X3150Y117323D02*
X4724D01*
X3937Y116535D02*
Y118110D01*
X3150Y122441D02*
X4724D01*
X3937Y121654D02*
Y123228D01*
X7480Y122441D02*
X9055D01*
X8268Y121654D02*
Y123228D01*
X7480Y112205D02*
X9055D01*
X8268Y111417D02*
Y112992D01*
X3150Y112205D02*
X4724D01*
X3937Y111417D02*
Y112992D01*
X3150Y133858D02*
X4724D01*
X3937Y133071D02*
Y134646D01*
X7480Y133858D02*
X9055D01*
X8268Y133071D02*
Y134646D01*
X7480Y144095D02*
X9055D01*
X8268Y143307D02*
Y144882D01*
X3150Y144095D02*
X4724D01*
X3937Y143307D02*
Y144882D01*
X3150Y138976D02*
X4724D01*
X3937Y138189D02*
Y139764D01*
X23622Y37008D02*
X25197D01*
X24409Y36220D02*
Y37795D01*
X23622Y39764D02*
X25197D01*
X24409Y38976D02*
Y40551D01*
X29134Y37008D02*
X30709D01*
X29921Y36220D02*
Y37795D01*
X29134Y39764D02*
X30709D01*
X29921Y38976D02*
Y40551D01*
X26378Y39764D02*
X27953D01*
X27165Y38976D02*
Y40551D01*
X26378Y37008D02*
X27953D01*
X27165Y36220D02*
Y37795D01*
X34252Y37008D02*
X35827D01*
X35039Y36220D02*
Y37795D01*
X34252Y39764D02*
X35827D01*
X35039Y38976D02*
Y40551D01*
X37008Y39764D02*
X38583D01*
X37795Y38976D02*
Y40551D01*
X39764Y39764D02*
X41339D01*
X40551Y38976D02*
Y40551D01*
X42520Y39764D02*
X44094D01*
X43307Y38976D02*
Y40551D01*
X42520Y37008D02*
X44094D01*
X43307Y36220D02*
Y37795D01*
X37008Y37008D02*
X38583D01*
X37795Y36220D02*
Y37795D01*
X39764Y37008D02*
X41339D01*
X40551Y36220D02*
Y37795D01*
X80121Y46161D02*
X81302D01*
X80712Y45571D02*
Y46752D01*
X80121Y50098D02*
X81302D01*
X80712Y49508D02*
Y50689D01*
X73032Y46163D02*
X74213D01*
X73622Y45572D02*
Y46753D01*
X84058Y50098D02*
X85239D01*
X84649Y49508D02*
Y50689D01*
X80121Y67716D02*
X81302D01*
X80712Y67126D02*
Y68307D01*
X39764Y80315D02*
X41339D01*
X40551Y79528D02*
Y81102D01*
X37008Y80315D02*
X38583D01*
X37795Y79528D02*
Y81102D01*
X42520Y80315D02*
X44094D01*
X43307Y79528D02*
Y81102D01*
X42520Y83071D02*
X44094D01*
X43307Y82284D02*
Y83858D01*
X39764Y83071D02*
X41339D01*
X40551Y82284D02*
Y83858D01*
X37008Y83071D02*
X38583D01*
X37795Y82284D02*
Y83858D01*
X34252Y83071D02*
X35827D01*
X35039Y82284D02*
Y83858D01*
X34252Y80315D02*
X35827D01*
X35039Y79528D02*
Y81102D01*
X50394Y72047D02*
X51968D01*
X51181Y71260D02*
Y72835D01*
X50394Y77559D02*
X51968D01*
X51181Y76772D02*
Y78347D01*
X50394Y74803D02*
X51968D01*
X51181Y74016D02*
Y75590D01*
X53150Y77559D02*
X54724D01*
X53937Y76772D02*
Y78347D01*
X55905Y77559D02*
X57480D01*
X56693Y76772D02*
Y78347D01*
X55905Y74803D02*
X57480D01*
X56693Y74016D02*
Y75590D01*
X53150Y74803D02*
X54724D01*
X53937Y74016D02*
Y75590D01*
X53150Y72047D02*
X54724D01*
X53937Y71260D02*
Y72835D01*
X55905Y72047D02*
X57480D01*
X56693Y71260D02*
Y72835D01*
X26378Y80315D02*
X27953D01*
X27165Y79528D02*
Y81102D01*
X26378Y83071D02*
X27953D01*
X27165Y82284D02*
Y83858D01*
X29134Y83071D02*
X30709D01*
X29921Y82284D02*
Y83858D01*
X29134Y80315D02*
X30709D01*
X29921Y79528D02*
Y81102D01*
X23622Y83071D02*
X25197D01*
X24409Y82284D02*
Y83858D01*
X23622Y80315D02*
X25197D01*
X24409Y79528D02*
Y81102D01*
X13976Y64567D02*
X15157D01*
X14567Y63976D02*
Y65158D01*
X80121Y89370D02*
X81302D01*
X80712Y88779D02*
Y89961D01*
X80121Y93307D02*
X81302D01*
X80712Y92716D02*
Y93898D01*
X39764Y101969D02*
X41339D01*
X40551Y101181D02*
Y102756D01*
X37008Y101969D02*
X38583D01*
X37795Y101181D02*
Y102756D01*
X42520Y101969D02*
X44094D01*
X43307Y101181D02*
Y102756D01*
X42520Y104724D02*
X44094D01*
X43307Y103937D02*
Y105512D01*
X39764Y104724D02*
X41339D01*
X40551Y103937D02*
Y105512D01*
X37008Y104724D02*
X38583D01*
X37795Y103937D02*
Y105512D01*
X34252Y104724D02*
X35827D01*
X35039Y103937D02*
Y105512D01*
X34252Y101969D02*
X35827D01*
X35039Y101181D02*
Y102756D01*
X50394Y93701D02*
X51968D01*
X51181Y92913D02*
Y94488D01*
X50394Y99213D02*
X51968D01*
X51181Y98425D02*
Y100000D01*
X50394Y96457D02*
X51968D01*
X51181Y95669D02*
Y97244D01*
X53150Y99213D02*
X54724D01*
X53937Y98425D02*
Y100000D01*
X55905Y99213D02*
X57480D01*
X56693Y98425D02*
Y100000D01*
X55905Y96457D02*
X57480D01*
X56693Y95669D02*
Y97244D01*
X53150Y96457D02*
X54724D01*
X53937Y95669D02*
Y97244D01*
X53150Y93701D02*
X54724D01*
X53937Y92913D02*
Y94488D01*
X55905Y93701D02*
X57480D01*
X56693Y92913D02*
Y94488D01*
X26378Y101969D02*
X27953D01*
X27165Y101181D02*
Y102756D01*
X26378Y104724D02*
X27953D01*
X27165Y103937D02*
Y105512D01*
X29134Y104724D02*
X30709D01*
X29921Y103937D02*
Y105512D01*
X29134Y101969D02*
X30709D01*
X29921Y101181D02*
Y102756D01*
X23622Y104724D02*
X25197D01*
X24409Y103937D02*
Y105512D01*
X23622Y101969D02*
X25197D01*
X24409Y101181D02*
Y102756D01*
X13976Y86221D02*
X15157D01*
X14567Y85630D02*
Y86811D01*
X65158Y89370D02*
X66339D01*
X65748Y88779D02*
Y89961D01*
X73032Y89372D02*
X74213D01*
X73622Y88781D02*
Y89962D01*
X84058Y89370D02*
X85239D01*
X84649Y88779D02*
Y89961D01*
X84058Y93307D02*
X85239D01*
X84649Y92716D02*
Y93898D01*
X91142Y95276D02*
X92323D01*
X91732Y94685D02*
Y95866D01*
X80121Y111024D02*
X81302D01*
X80712Y110433D02*
Y111614D01*
X80121Y114961D02*
X81302D01*
X80712Y114370D02*
Y115551D01*
X39764Y123622D02*
X41339D01*
X40551Y122835D02*
Y124409D01*
X37008Y123622D02*
X38583D01*
X37795Y122835D02*
Y124409D01*
X42520Y123622D02*
X44094D01*
X43307Y122835D02*
Y124409D01*
X42520Y126378D02*
X44094D01*
X43307Y125591D02*
Y127165D01*
X39764Y126378D02*
X41339D01*
X40551Y125591D02*
Y127165D01*
X37008Y126378D02*
X38583D01*
X37795Y125591D02*
Y127165D01*
X34252Y126378D02*
X35827D01*
X35039Y125591D02*
Y127165D01*
X34252Y123622D02*
X35827D01*
X35039Y122835D02*
Y124409D01*
X50394Y115354D02*
X51968D01*
X51181Y114567D02*
Y116142D01*
X50394Y120866D02*
X51968D01*
X51181Y120079D02*
Y121653D01*
X50394Y118110D02*
X51968D01*
X51181Y117323D02*
Y118898D01*
X53150Y120866D02*
X54724D01*
X53937Y120079D02*
Y121653D01*
X55905Y120866D02*
X57480D01*
X56693Y120079D02*
Y121653D01*
X55905Y118110D02*
X57480D01*
X56693Y117323D02*
Y118898D01*
X53150Y118110D02*
X54724D01*
X53937Y117323D02*
Y118898D01*
X53150Y115354D02*
X54724D01*
X53937Y114567D02*
Y116142D01*
X55905Y115354D02*
X57480D01*
X56693Y114567D02*
Y116142D01*
X26378Y123622D02*
X27953D01*
X27165Y122835D02*
Y124409D01*
X26378Y126378D02*
X27953D01*
X27165Y125591D02*
Y127165D01*
X29134Y126378D02*
X30709D01*
X29921Y125591D02*
Y127165D01*
X29134Y123622D02*
X30709D01*
X29921Y122835D02*
Y124409D01*
X23622Y126378D02*
X25197D01*
X24409Y125591D02*
Y127165D01*
X23622Y123622D02*
X25197D01*
X24409Y122835D02*
Y124409D01*
X13976Y107874D02*
X15157D01*
X14567Y107283D02*
Y108465D01*
X73032Y111025D02*
X74213D01*
X73622Y110435D02*
Y111616D01*
X84058Y111024D02*
X85239D01*
X84649Y110433D02*
Y111614D01*
X84058Y114961D02*
X85239D01*
X84649Y114370D02*
Y115551D01*
X91142Y138583D02*
X92323D01*
X91732Y137992D02*
Y139173D01*
X84058Y136614D02*
X85239D01*
X84649Y136024D02*
Y137205D01*
X84058Y132677D02*
X85239D01*
X84649Y132087D02*
Y133268D01*
X73032Y132679D02*
X74213D01*
X73622Y132088D02*
Y133269D01*
X65158Y132677D02*
X66339D01*
X65748Y132087D02*
Y133268D01*
X13976Y129527D02*
X15157D01*
X14567Y128937D02*
Y130118D01*
X23622Y145276D02*
X25197D01*
X24409Y144488D02*
Y146063D01*
X23622Y148031D02*
X25197D01*
X24409Y147244D02*
Y148819D01*
X29134Y145276D02*
X30709D01*
X29921Y144488D02*
Y146063D01*
X29134Y148031D02*
X30709D01*
X29921Y147244D02*
Y148819D01*
X26378Y148031D02*
X27953D01*
X27165Y147244D02*
Y148819D01*
X26378Y145276D02*
X27953D01*
X27165Y144488D02*
Y146063D01*
X55905Y137008D02*
X57480D01*
X56693Y136221D02*
Y137795D01*
X53150Y137008D02*
X54724D01*
X53937Y136221D02*
Y137795D01*
X53150Y139764D02*
X54724D01*
X53937Y138976D02*
Y140551D01*
X55905Y139764D02*
X57480D01*
X56693Y138976D02*
Y140551D01*
X55905Y142520D02*
X57480D01*
X56693Y141732D02*
Y143307D01*
X53150Y142520D02*
X54724D01*
X53937Y141732D02*
Y143307D01*
X50394Y139764D02*
X51968D01*
X51181Y138976D02*
Y140551D01*
X50394Y142520D02*
X51968D01*
X51181Y141732D02*
Y143307D01*
X50394Y137008D02*
X51968D01*
X51181Y136221D02*
Y137795D01*
X34252Y145276D02*
X35827D01*
X35039Y144488D02*
Y146063D01*
X34252Y148031D02*
X35827D01*
X35039Y147244D02*
Y148819D01*
X37008Y148031D02*
X38583D01*
X37795Y147244D02*
Y148819D01*
X39764Y148031D02*
X41339D01*
X40551Y147244D02*
Y148819D01*
X42520Y148031D02*
X44094D01*
X43307Y147244D02*
Y148819D01*
X42520Y145276D02*
X44094D01*
X43307Y144488D02*
Y146063D01*
X37008Y145276D02*
X38583D01*
X37795Y144488D02*
Y146063D01*
X39764Y145276D02*
X41339D01*
X40551Y144488D02*
Y146063D01*
X252953Y169685D02*
X254134D01*
X253543Y169095D02*
Y170276D01*
X252953Y175984D02*
X254134D01*
X253543Y175394D02*
Y176575D01*
X256496Y172835D02*
X257677D01*
X257087Y172244D02*
Y173425D01*
X244882Y191338D02*
X246063D01*
X245472Y190748D02*
Y191929D01*
X221654Y191339D02*
X222835D01*
X222244Y190748D02*
Y191929D01*
X178543Y190945D02*
X179724D01*
X179134Y190354D02*
Y191535D01*
X182480Y190945D02*
X183661D01*
X183071Y190354D02*
Y191535D01*
X186417Y190945D02*
X187598D01*
X187008Y190354D02*
Y191535D01*
X190354Y190945D02*
X191535D01*
X190945Y190354D02*
Y191535D01*
X178543Y187008D02*
X179724D01*
X179134Y186417D02*
Y187598D01*
X182480Y187008D02*
X183661D01*
X183071Y186417D02*
Y187598D01*
X186417Y187008D02*
X187598D01*
X187008Y186417D02*
Y187598D01*
X190354Y187008D02*
X191535D01*
X190945Y186417D02*
Y187598D01*
X190354Y179134D02*
X191535D01*
X190945Y178543D02*
Y179724D01*
X186417Y179134D02*
X187598D01*
X187008Y178543D02*
Y179724D01*
X182480Y179134D02*
X183661D01*
X183071Y178543D02*
Y179724D01*
X178543Y179134D02*
X179724D01*
X179134Y178543D02*
Y179724D01*
X190354Y183071D02*
X191535D01*
X190945Y182480D02*
Y183661D01*
X186417Y183071D02*
X187598D01*
X187008Y182480D02*
Y183661D01*
X182480Y183071D02*
X183661D01*
X183071Y182480D02*
Y183661D01*
X178543Y183071D02*
X179724D01*
X179134Y182480D02*
Y183661D01*
X198228Y183071D02*
X199409D01*
X198819Y182480D02*
Y183661D01*
X202165Y183071D02*
X203346D01*
X202756Y182480D02*
Y183661D01*
X206102Y183071D02*
X207283D01*
X206693Y182480D02*
Y183661D01*
X210039Y183071D02*
X211221D01*
X210630Y182480D02*
Y183661D01*
X198228Y179134D02*
X199409D01*
X198819Y178543D02*
Y179724D01*
X202165Y179134D02*
X203346D01*
X202756Y178543D02*
Y179724D01*
X206102Y179134D02*
X207283D01*
X206693Y178543D02*
Y179724D01*
X210039Y179134D02*
X211221D01*
X210630Y178543D02*
Y179724D01*
X210039Y187008D02*
X211221D01*
X210630Y186417D02*
Y187598D01*
X206102Y187008D02*
X207283D01*
X206693Y186417D02*
Y187598D01*
X202165Y187008D02*
X203346D01*
X202756Y186417D02*
Y187598D01*
X198228Y187008D02*
X199409D01*
X198819Y186417D02*
Y187598D01*
X210039Y190945D02*
X211221D01*
X210630Y190354D02*
Y191535D01*
X206102Y190945D02*
X207283D01*
X206693Y190354D02*
Y191535D01*
X202165Y190945D02*
X203346D01*
X202756Y190354D02*
Y191535D01*
X198228Y190945D02*
X199409D01*
X198819Y190354D02*
Y191535D01*
X152953Y190945D02*
X154134D01*
X153543Y190354D02*
Y191535D01*
X156890Y190945D02*
X158071D01*
X157480Y190354D02*
Y191535D01*
X160827Y190945D02*
X162008D01*
X161417Y190354D02*
Y191535D01*
X164764Y190945D02*
X165945D01*
X165354Y190354D02*
Y191535D01*
X152953Y187008D02*
X154134D01*
X153543Y186417D02*
Y187598D01*
X156890Y187008D02*
X158071D01*
X157480Y186417D02*
Y187598D01*
X160827Y187008D02*
X162008D01*
X161417Y186417D02*
Y187598D01*
X164764Y187008D02*
X165945D01*
X165354Y186417D02*
Y187598D01*
X164764Y179134D02*
X165945D01*
X165354Y178543D02*
Y179724D01*
X160827Y179134D02*
X162008D01*
X161417Y178543D02*
Y179724D01*
X156890Y179134D02*
X158071D01*
X157480Y178543D02*
Y179724D01*
X152953Y179134D02*
X154134D01*
X153543Y178543D02*
Y179724D01*
X164764Y183071D02*
X165945D01*
X165354Y182480D02*
Y183661D01*
X160827Y183071D02*
X162008D01*
X161417Y182480D02*
Y183661D01*
X156890Y183071D02*
X158071D01*
X157480Y182480D02*
Y183661D01*
X152953Y183071D02*
X154134D01*
X153543Y182480D02*
Y183661D01*
X133268Y183071D02*
X134449D01*
X133858Y182480D02*
Y183661D01*
X137205Y183071D02*
X138386D01*
X137795Y182480D02*
Y183661D01*
X141142Y183071D02*
X142323D01*
X141732Y182480D02*
Y183661D01*
X145079Y183071D02*
X146260D01*
X145669Y182480D02*
Y183661D01*
X133268Y179134D02*
X134449D01*
X133858Y178543D02*
Y179724D01*
X137205Y179134D02*
X138386D01*
X137795Y178543D02*
Y179724D01*
X141142Y179134D02*
X142323D01*
X141732Y178543D02*
Y179724D01*
X145079Y179134D02*
X146260D01*
X145669Y178543D02*
Y179724D01*
X145079Y187008D02*
X146260D01*
X145669Y186417D02*
Y187598D01*
X141142Y187008D02*
X142323D01*
X141732Y186417D02*
Y187598D01*
X137205Y187008D02*
X138386D01*
X137795Y186417D02*
Y187598D01*
X133268Y187008D02*
X134449D01*
X133858Y186417D02*
Y187598D01*
X145079Y190945D02*
X146260D01*
X145669Y190354D02*
Y191535D01*
X141142Y190945D02*
X142323D01*
X141732Y190354D02*
Y191535D01*
X137205Y190945D02*
X138386D01*
X137795Y190354D02*
Y191535D01*
X133268Y190945D02*
X134449D01*
X133858Y190354D02*
Y191535D01*
X154921Y153150D02*
X156102D01*
X155512Y152559D02*
Y153740D01*
X143602Y153425D02*
X144783D01*
X144193Y152834D02*
Y154015D01*
X80121Y136614D02*
X81302D01*
X80712Y136024D02*
Y137205D01*
X80121Y132677D02*
X81302D01*
X80712Y132087D02*
Y133268D01*
M02*
